<?xml version="1.0" encoding="UTF-8" standalone="no"?>
<!-- Created with Inkscape (http://www.inkscape.org/) -->

<svg
   width="1024"
   height="1024"
   viewBox="0 0 270.93333 270.93333"
   version="1.1"
   id="svg1"
   xml:space="preserve"
   inkscape:version="1.4 (86a8ad7, 2024-10-11)"
   sodipodi:docname="cond_block_end.svg"
   xmlns:inkscape="http://www.inkscape.org/namespaces/inkscape"
   xmlns:sodipodi="http://sodipodi.sourceforge.net/DTD/sodipodi-0.dtd"
   xmlns="http://www.w3.org/2000/svg"
   xmlns:svg="http://www.w3.org/2000/svg"><sodipodi:namedview
     id="namedview1"
     pagecolor="#ffffff"
     bordercolor="#000000"
     borderopacity="0.25"
     inkscape:showpageshadow="2"
     inkscape:pageopacity="0.0"
     inkscape:pagecheckerboard="0"
     inkscape:deskcolor="#d1d1d1"
     inkscape:document-units="mm"
     inkscape:zoom="0.50835204"
     inkscape:cx="678.66355"
     inkscape:cy="654.07429"
     inkscape:window-width="1920"
     inkscape:window-height="1009"
     inkscape:window-x="1912"
     inkscape:window-y="-8"
     inkscape:window-maximized="1"
     inkscape:current-layer="layer1" /><defs
     id="defs1" /><g
     inkscape:label="Capa 1"
     inkscape:groupmode="layer"
     id="layer1"><path
       d="m 20.892218,41.707272 v 24.088453 c -4.9e-4,0.01226 -0.0036,0.02377 -0.0036,0.03617 v 43.035095 2.65462 c 2.66034,-1.58063 5.554915,-2.48371 8.508525,-2.65462 h 3.049426 c 0.39842,0.0588 0.795445,0.13098 1.190625,0.21653 10.62449,2.03914 18.458851,13.24043 18.471741,26.41027 -0.0891,13.09751 -7.905181,24.19202 -18.471741,26.21959 -0.43603,0.0869 -0.874095,0.15752 -1.313615,0.21187 h -4.140833 c -2.5296,-0.2941 -4.997948,-1.12615 -7.294128,-2.45876 v 2.45876 38.26847 h -0.02739 v 29.03234 h 11.206034 174.853918 2.03812 c 5.15702,-0.64581 9.26006,-5.38298 9.9105,-11.4422 v -0.52555 -3.60133 -8.37262 h -0.0134 c 3.3e-4,-0.0288 0.008,-0.0554 0.008,-0.0842 7e-5,-0.0188 0.006,-0.036 0.006,-0.0548 v -4.95163 -38.27415 -2.44946 c 2.29039,1.32665 4.75172,2.15547 7.27397,2.44946 h 4.14341 c 0.43917,-0.0542 0.8769,-0.12469 1.31258,-0.21136 10.56657,-2.02756 18.38267,-13.12207 18.47174,-26.21959 -0.0127,-13.17003 -7.84708,-24.37163 -18.47174,-26.41079 -0.39603,-0.0856 -0.79392,-0.1578 -1.19321,-0.21652 h -3.04684 c -2.94675,0.17105 -5.83473,1.0709 -8.48992,2.64532 v -2.64533 -38.121701 -4.907711 c 0,-0.06253 -0.0172,-0.120121 -0.0181,-0.182418 h 0.061 v -9.600447 -3.979086 c -0.8997,-5.28452 -4.44323,-9.38981 -8.94467,-10.362675 H 206.95114 32.113756 Z"
       style="fill:none;stroke:#000000;stroke-width:0.369;stroke-dasharray:none"
       id="path2" /></g></svg>
